<svg width="606.16748046875px" height="122px" xmlns="http://www.w3.org/2000/svg" viewBox="-53.083740234375 14 606.16748046875 122" style="background: rgba(0, 0, 0, 0);" preserveAspectRatio="xMidYMid"><defs><filter id="editing-hole" x="-100%" y="-100%" width="300%" height="300%"><feFlood flood-color="#000" result="black"></feFlood><feMorphology operator="dilate" radius="2" in="SourceGraphic" result="erode"></feMorphology><feGaussianBlur in="erode" stdDeviation="4" result="blur"></feGaussianBlur><feOffset in="blur" dx="2" dy="2" result="offset"></feOffset><feComposite operator="atop" in="offset" in2="black" result="merge"></feComposite><feComposite operator="in" in="merge" in2="SourceGraphic" result="inner-shadow"></feComposite></filter></defs><g filter="url(#editing-hole)"><g transform="translate(38.05673789978027, 97.01499938964844)"><path d="M29.18 1.28L29.18 1.28L29.18 1.28Q20.99 1.28 20.22-10.37L20.22-10.37L9.22-10.37L9.22-10.37Q7.94-7.42 7.04-4.86L7.04-4.86L5.38 0L-3.58 0L16.58-42.24L30.34-42.24L33.02-11.14L33.02-11.14Q33.66-4.42 36.22-2.43L36.22-2.43L36.22-2.43Q34.37 1.28 29.18 1.28ZM14.72-23.17L11.20-15.04L20.03-15.04L19.26-31.49L19.26-33.22L14.72-23.17ZM53.18 0L39.23 0L47.36-42.24L61.44-42.24L53.18 0ZM89.15 0L75.46 0L83.26-42.05L83.26-42.05Q89.60-42.75 98.85-42.75L98.85-42.75L98.85-42.75Q108.10-42.75 112.38-40.06L112.38-40.06L112.38-40.06Q116.67-37.38 116.67-31.97L116.67-31.97L116.67-31.97Q116.67-26.56 113.89-23.17L113.89-23.17L113.89-23.17Q111.10-19.78 106.30-18.69L106.30-18.69L106.30-18.69Q107.39-13.38 109.89-9.09L109.89-9.09L109.89-9.09Q112.19-5.06 114.88-3.78L114.88-3.78L114.88-3.78Q113.92-1.09 111.97 0.10L111.97 0.10L111.97 0.10Q110.02 1.28 107.23 1.28L107.23 1.28L107.23 1.28Q104.45 1.28 102.27-0.35L102.27-0.35L102.27-0.35Q100.10-1.98 98.37-4.99L98.37-4.99L98.37-4.99Q94.72-11.52 94.34-21.82L94.34-21.82L94.78-21.82L94.78-21.82Q99.52-21.95 101.89-24.42L101.89-24.42L101.89-24.42Q104.26-26.88 104.26-32.06L104.26-32.06L104.26-32.06Q104.26-38.53 98.82-38.78L98.82-38.78L97.41-38.78L97.41-38.78Q96.83-38.78 96.51-38.72L96.51-38.72L89.15 0ZM145.54-10.82L145.54-10.82L145.54-10.82Q147.14-9.73 147.14-7.33L147.14-7.33L147.14-7.33Q147.14-4.93 145.92-3.39L145.92-3.39L145.92-3.39Q144.70-1.86 142.72-0.83L142.72-0.83L142.72-0.83Q138.62 1.28 134.21 1.28L134.21 1.28L134.21 1.28Q129.79 1.28 127.20 0.32L127.20 0.32L127.20 0.32Q124.61-0.64 122.88-2.43L122.88-2.43L122.88-2.43Q119.49-5.82 119.49-12.03L119.49-12.03L119.49-12.03Q119.49-21.70 124.74-27.58L124.74-27.58L124.74-27.58Q130.37-33.92 140.16-33.92L140.16-33.92L140.16-33.92Q146.24-33.92 149.25-31.36L149.25-31.36L149.25-31.36Q151.49-29.44 151.49-26.30L151.49-26.30L151.49-26.30Q151.49-15.04 132.03-15.04L132.03-15.04L132.03-15.04Q131.78-13.38 131.78-11.97L131.78-11.97L131.78-11.97Q131.78-9.02 133.09-7.90L133.09-7.90L133.09-7.90Q134.40-6.78 136.83-6.78L136.83-6.78L136.83-6.78Q139.26-6.78 141.86-7.90L141.86-7.90L141.86-7.90Q144.45-9.02 145.54-10.82ZM132.48-17.79L132.48-17.79L132.48-17.79Q137.02-17.79 139.65-20.61L139.65-20.61L139.65-20.61Q142.27-23.30 142.27-27.58L142.27-27.58L142.27-27.58Q142.27-29.06 141.73-29.86L141.73-29.86L141.73-29.86Q141.18-30.66 140.10-30.66L140.10-30.66L140.10-30.66Q139.01-30.66 138.08-30.24L138.08-30.24L138.08-30.24Q137.15-29.82 136.19-28.42L136.19-28.42L136.19-28.42Q133.82-25.22 132.48-17.79ZM172.80-22.46L172.80-22.46L172.80-22.46Q173.70-24.83 173.70-26.88L173.70-26.88L173.70-26.88Q173.70-30.66 170.62-30.66L170.62-30.66L170.62-30.66Q169.02-30.66 167.71-29.22L167.71-29.22L167.71-29.22Q166.40-27.78 166.40-25.98L166.40-25.98L166.40-25.98Q166.40-24.70 167.42-23.68L167.42-23.68L167.42-23.68Q168.90-22.27 172.67-19.97L172.67-19.97L172.67-19.97Q176.45-17.66 177.89-15.78L177.89-15.78L177.89-15.78Q179.33-13.89 179.33-11.30L179.33-11.30L179.33-11.30Q179.33-8.70 178.08-6.34L178.08-6.34L178.08-6.34Q176.83-3.97 174.59-2.30L174.59-2.30L174.59-2.30Q169.79 1.28 162.11 1.28L162.11 1.28L162.11 1.28Q157.95 1.28 154.75-0.90L154.75-0.90L154.75-0.90Q151.55-3.01 151.55-5.50L151.55-5.50L151.55-5.50Q151.55-8 153.38-9.47L153.38-9.47L153.38-9.47Q155.20-10.94 157.89-10.94L157.89-10.94L157.89-10.94Q160.58-10.94 162.24-9.92L162.24-9.92L162.24-9.92Q161.41-7.81 161.41-6.40L161.41-6.40L161.41-6.40Q161.41-2.18 164.99-2.18L164.99-2.18L164.99-2.18Q166.53-2.18 167.55-3.14L167.55-3.14L167.55-3.14Q168.58-4.10 168.58-5.76L168.58-5.76L168.58-5.76Q168.58-9.02 163.07-12.48L163.07-12.48L163.07-12.48Q158.59-15.42 157.57-16.58L157.57-16.58L157.57-16.58Q155.84-18.62 155.84-21.18L155.84-21.18L155.84-21.18Q155.84-23.74 157.06-26.18L157.06-26.18L157.06-26.18Q158.27-28.61 160.51-30.34L160.51-30.34L160.51-30.34Q165.18-33.92 173.31-33.92L173.31-33.92L173.31-33.92Q177.47-33.92 179.94-32.26L179.94-32.26L179.94-32.26Q182.40-30.59 182.40-27.78L182.40-27.78L182.40-27.78Q182.40-24.96 180.70-23.36L180.70-23.36L180.70-23.36Q179.01-21.76 175.94-21.76L175.94-21.76L175.94-21.76Q173.82-21.76 172.80-22.46ZM185.79-6.40L185.79-6.40L185.79-6.40Q185.79-8.13 186.69-12.48L186.69-12.48L190.08-29.76L186.30-29.76L186.56-31.68L186.56-31.68Q194.24-33.98 201.66-39.62L201.66-39.62L204.74-39.62L203.20-32.64L208.19-32.64L207.62-29.76L202.69-29.76L199.42-12.48L199.42-12.48Q198.59-8.51 198.59-7.17L198.59-7.17L198.59-7.17Q198.59-4.10 201.28-3.46L201.28-3.46L201.28-3.46Q200.64-1.28 198.34 0L198.34 0L198.34 0Q196.03 1.28 192.77 1.28L192.77 1.28L192.77 1.28Q189.50 1.28 187.65-0.77L187.65-0.77L187.65-0.77Q185.79-2.82 185.79-6.40ZM210.40-1.92L210.40-1.92L210.40-1.92Q208.90-3.58 208.22-6.21L208.22-6.21L208.22-6.21Q207.55-8.83 207.55-13.12L207.55-13.12L207.55-13.12Q207.55-17.41 209.02-21.31L209.02-21.31L209.02-21.31Q210.50-25.22 213.18-28.03L213.18-28.03L213.18-28.03Q218.69-33.92 227.78-33.92L227.78-33.92L227.78-33.92Q231.04-33.92 233.41-32.83L233.41-32.83L244.35-33.92L239.62-8.96L239.62-8.96Q239.42-8.19 239.42-6.78L239.42-6.78L239.42-6.78Q239.42-5.38 240.29-4.48L240.29-4.48L240.29-4.48Q241.15-3.58 242.43-3.46L242.43-3.46L242.43-3.46Q241.79-1.28 239.46 0L239.46 0L239.46 0Q237.12 1.28 234.50 1.28L234.50 1.28L234.50 1.28Q231.87 1.28 230.11 0.29L230.11 0.29L230.11 0.29Q228.35-0.70 227.84-2.37L227.84-2.37L227.84-2.37Q226.82-0.77 224.64 0.26L224.64 0.26L224.64 0.26Q222.46 1.28 219.55 1.28L219.55 1.28L219.55 1.28Q216.64 1.28 214.27 0.51L214.27 0.51L214.27 0.51Q211.90-0.26 210.40-1.92ZM223.90-27.90L223.90-27.90L223.90-27.90Q223.17-26.75 222.53-24.80L222.53-24.80L222.53-24.80Q221.89-22.85 220.83-17.63L220.83-17.63L220.83-17.63Q219.78-12.42 219.78-8.70L219.78-8.70L219.78-8.70Q219.78-4.99 220.35-3.90L220.35-3.90L220.35-3.90Q220.93-2.82 221.95-2.82L221.95-2.82L221.95-2.82Q224-2.82 225.50-4.77L225.50-4.77L225.50-4.77Q227.01-6.72 227.58-10.18L227.58-10.18L230.98-28.93L230.98-28.93Q229.63-30.08 228.06-30.08L228.06-30.08L228.06-30.08Q226.50-30.08 225.57-29.57L225.57-29.57L225.57-29.57Q224.64-29.06 223.90-27.90ZM268.35-2.69L268.35-2.69L268.35-2.69Q265.28 1.28 257.66 1.28L257.66 1.28L257.66 1.28Q253.70 1.28 250.82-1.12L250.82-1.12L250.82-1.12Q247.94-3.52 247.94-6.98L247.94-6.98L247.94-6.98Q247.94-8.90 248.13-9.86L248.13-9.86L252.42-32.64L265.41-33.92L260.74-9.22L260.74-9.22Q260.48-7.81 260.48-6.98L260.48-6.98L260.48-6.98Q260.48-3.26 262.72-3.26L262.72-3.26L262.72-3.26Q265.22-3.26 267.01-6.66L267.01-6.66L267.01-6.66Q267.58-7.74 267.84-9.15L267.84-9.15L272.38-32.64L284.99-33.92L280.26-8.96L280.26-8.96Q280.06-8 280.06-6.98L280.06-6.98L280.06-6.98Q280.06-5.95 280.64-4.83L280.64-4.83L280.64-4.83Q281.22-3.71 283.07-3.46L283.07-3.46L283.07-3.46Q282.69-1.92 281.34-0.90L281.34-0.90L281.34-0.90Q278.53 1.28 275.49 1.28L275.49 1.28L275.49 1.28Q272.45 1.28 270.66 0.19L270.66 0.19L270.66 0.19Q268.86-0.90 268.35-2.69ZM308.48-17.98L308.48-17.98L308.48-17.98Q310.78-22.08 310.78-26.24L310.78-26.24L310.78-26.24Q310.78-28.99 308.80-28.99L308.80-28.99L308.80-28.99Q307.26-28.99 305.66-26.37L305.66-26.37L305.66-26.37Q304-23.74 303.49-20.35L303.49-20.35L300.16 0L286.91 1.28L293.44-32.64L304-33.92L302.85-27.46L302.85-27.46Q305.98-33.92 313.02-33.92L313.02-33.92L313.02-33.92Q316.74-33.92 318.75-32L318.75-32L318.75-32Q320.77-30.08 320.77-26.14L320.77-26.14L320.77-26.14Q320.77-22.21 318.18-19.71L318.18-19.71L318.18-19.71Q315.58-17.22 311.17-17.22L311.17-17.22L311.17-17.22Q309.25-17.22 308.48-17.98ZM324.58-1.92L324.58-1.92L324.58-1.92Q323.07-3.58 322.40-6.21L322.40-6.21L322.40-6.21Q321.73-8.83 321.73-13.12L321.73-13.12L321.73-13.12Q321.73-17.41 323.20-21.31L323.20-21.31L323.20-21.31Q324.67-25.22 327.36-28.03L327.36-28.03L327.36-28.03Q332.86-33.92 341.95-33.92L341.95-33.92L341.95-33.92Q345.22-33.92 347.58-32.83L347.58-32.83L358.53-33.92L353.79-8.96L353.79-8.96Q353.60-8.19 353.60-6.78L353.60-6.78L353.60-6.78Q353.60-5.38 354.46-4.48L354.46-4.48L354.46-4.48Q355.33-3.58 356.61-3.46L356.61-3.46L356.61-3.46Q355.97-1.28 353.63 0L353.63 0L353.63 0Q351.30 1.28 348.67 1.28L348.67 1.28L348.67 1.28Q346.05 1.28 344.29 0.29L344.29 0.29L344.29 0.29Q342.53-0.70 342.02-2.37L342.02-2.37L342.02-2.37Q340.99-0.77 338.82 0.26L338.82 0.26L338.82 0.26Q336.64 1.28 333.73 1.28L333.73 1.28L333.73 1.28Q330.82 1.28 328.45 0.51L328.45 0.51L328.45 0.51Q326.08-0.26 324.58-1.92ZM338.08-27.90L338.08-27.90L338.08-27.90Q337.34-26.75 336.70-24.80L336.70-24.80L336.70-24.80Q336.06-22.85 335.01-17.63L335.01-17.63L335.01-17.63Q333.95-12.42 333.95-8.70L333.95-8.70L333.95-8.70Q333.95-4.99 334.53-3.90L334.53-3.90L334.53-3.90Q335.10-2.82 336.13-2.82L336.13-2.82L336.13-2.82Q338.18-2.82 339.68-4.77L339.68-4.77L339.68-4.77Q341.18-6.72 341.76-10.18L341.76-10.18L345.15-28.93L345.15-28.93Q343.81-30.08 342.24-30.08L342.24-30.08L342.24-30.08Q340.67-30.08 339.74-29.57L339.74-29.57L339.74-29.57Q338.82-29.06 338.08-27.90ZM389.06 1.28L389.06 1.28L389.06 1.28Q381.31 1.28 381.31-4.74L381.31-4.74L381.31-4.74Q381.38-6.40 381.89-9.22L381.89-9.22L383.04-15.10L383.04-15.10Q384.77-23.42 384.77-25.28L384.77-25.28L384.77-25.28Q384.77-28.99 382.59-28.99L382.59-28.99L382.59-28.99Q378.94-28.99 377.02-19.46L377.02-19.46L373.25 0L360.38 1.28L367.04-32.70L377.54-33.92L376.51-27.65L376.51-27.65Q379.52-33.92 388.74-33.92L388.74-33.92L388.74-33.92Q393.22-33.92 395.10-32.03L395.10-32.03L395.10-32.03Q396.99-30.14 396.99-25.92L396.99-25.92L396.99-25.92Q396.99-21.95 394.94-12.67L394.94-12.67L394.94-12.67Q393.98-8.51 393.98-6.94L393.98-6.94L393.98-6.94Q393.98-5.38 394.85-4.48L394.85-4.48L394.85-4.48Q395.71-3.58 396.99-3.46L396.99-3.46L396.99-3.46Q396.35-1.28 394.14 0L394.14 0L394.14 0Q391.94 1.28 389.06 1.28ZM403.14-6.40L403.14-6.40L403.14-6.40Q403.14-8.13 404.03-12.48L404.03-12.48L407.42-29.76L403.65-29.76L403.90-31.68L403.90-31.68Q411.58-33.98 419.01-39.62L419.01-39.62L422.08-39.62L420.54-32.64L425.54-32.64L424.96-29.76L420.03-29.76L416.77-12.48L416.77-12.48Q415.94-8.51 415.94-7.17L415.94-7.17L415.94-7.17Q415.94-4.10 418.62-3.46L418.62-3.46L418.62-3.46Q417.98-1.28 415.68 0L415.68 0L415.68 0Q413.38 1.28 410.11 1.28L410.11 1.28L410.11 1.28Q406.85 1.28 404.99-0.77L404.99-0.77L404.99-0.77Q403.14-2.82 403.14-6.40Z" fill="#ccc"></path></g></g><style>text {
  font-size: 64px;
  font-family: Arial Black;
  dominant-baseline: central;
  text-anchor: middle;
}</style></svg>